<svg width="164" height="136" viewBox="32 19 164 130" fill="none" xmlns="http://www.w3.org/2000/svg">
<g filter="url(#filter0_d_2001_1444)">
<rect x="32" y="16.0001" width="164" height="136" rx="16" fill="#FA8A34"/>
</g>
<mask id="mask0_2001_1444" style="mask-type:alpha" maskUnits="userSpaceOnUse" x="32" y="16" width="164" height="136">
<rect x="32" y="16.0001" width="164" height="136" rx="16" fill="#FA8A34"/>
</mask>
<g mask="url(#mask0_2001_1444)">
</g>
<path d="M144.028 75.7981C145.301 67.2256 138.821 62.6172 129.961 59.543L132.835 47.9305L125.818 46.1689L123.02 57.4754C121.175 57.0123 119.28 56.5754 117.397 56.1426L120.215 44.7616L113.202 43L110.326 54.6085C108.799 54.2582 107.3 53.9119 105.845 53.5475L105.853 53.5112L96.1753 51.0772L94.3085 58.6269C94.3085 58.6269 99.5151 59.8289 99.4052 59.9034C102.247 60.6181 102.761 62.5125 102.675 64.0144L99.4012 77.2436C99.597 77.2939 99.8509 77.3664 100.131 77.4791C99.8968 77.4208 99.647 77.3563 99.3892 77.2939L94.8002 95.826C94.4524 96.6957 93.571 98.0003 91.5843 97.5051C91.6543 97.6077 86.4837 96.2226 86.4837 96.2226L83 104.314L92.132 106.607C93.8308 107.036 95.4957 107.485 97.1347 107.908L94.2306 119.653L101.24 121.415L104.116 109.794C106.031 110.317 107.89 110.801 109.708 111.256L106.842 122.822L113.86 124.583L116.764 112.86C128.73 115.141 137.728 114.221 141.515 103.319C144.567 94.5415 141.363 89.4782 135.068 86.1764C139.653 85.1114 143.106 82.0734 144.028 75.7981V75.7981ZM127.994 98.4453C125.826 107.223 111.153 102.478 106.397 101.288L110.25 85.7275C115.007 86.9234 130.261 89.291 127.994 98.4453ZM130.165 75.6712C128.186 83.6558 115.974 79.5991 112.013 78.6046L115.507 64.4916C119.468 65.4861 132.225 67.3424 130.165 75.6712V75.6712Z" fill="white"/>
<defs>
<filter id="filter0_d_2001_1444" x="0" y="6.10352e-05" width="228" height="170" filterUnits="userSpaceOnUse" color-interpolation-filters="sRGB">
<feFlood flood-opacity="0" result="BackgroundImageFix"/>
<feColorMatrix in="SourceAlpha" type="matrix" values="0 0 0 0 0 0 0 0 0 0 0 0 0 0 0 0 0 0 127 0" result="hardAlpha"/>
<feOffset dy="16"/>
<feGaussianBlur stdDeviation="16"/>
<feComposite in2="hardAlpha" operator="out"/>
<feColorMatrix type="matrix" values="0 0 0 0 0.0847274 0 0 0 0 0.0965299 0 0 0 0 0.116916 0 0 0 0.09 0"/>
<feBlend mode="normal" in2="BackgroundImageFix" result="effect1_dropShadow_2001_1444"/>
<feBlend mode="normal" in="SourceGraphic" in2="effect1_dropShadow_2001_1444" result="shape"/>
</filter>
</defs>
</svg>

