<svg width="104" height="48" viewBox="0 0 104 48" fill="none" xmlns="http://www.w3.org/2000/svg">
<g opacity="0.64">
<rect x="60.0002" y="1.99988" width="44.0001" height="44.0001" rx="22" fill="#E2ED5C"/>
<path d="M83.4106 13.4584H79.6624C79.2683 13.4584 78.9184 13.7102 78.7932 14.0838L75.4932 23.9318C75.2942 24.5257 75.736 25.1397 76.3623 25.1397H79.0876C79.6776 25.1397 80.114 25.6891 79.9805 26.2638L78.2531 33.7023C78.026 34.6801 79.3096 35.2592 79.8924 34.4419L88.3009 22.6494C88.7335 22.0426 88.2998 21.2005 87.5545 21.2005H83.0804C82.4356 21.2005 81.9924 20.5526 82.226 19.9517L84.265 14.7072C84.4986 14.1063 84.0554 13.4584 83.4106 13.4584Z" fill="#06070A"/>
</g>
<g opacity="0.63">
<rect x="0.000244141" y="2" width="43.9999" height="43.9999" rx="22" fill="#F7D16D"/>
<path d="M29.6772 25.8687C29.6772 19.1457 22.2073 13.9167 22.2073 13.9167C22.2073 13.9167 14.7373 19.1457 14.7373 25.8687C14.7373 27.8498 15.5243 29.7498 16.9252 31.1507C18.3261 32.5516 20.2261 33.3386 22.2073 33.3386C24.1884 33.3386 26.0884 32.5516 27.4893 31.1507C28.8902 29.7498 29.6772 27.8498 29.6772 25.8687Z" fill="#606773"/>
<path d="M26.6892 25.8687C26.6892 27.0573 26.217 28.1974 25.3765 29.0379C24.536 29.8784 23.396 30.3506 22.2073 30.3506" stroke="#C1C4CB" stroke-width="1.375" stroke-linecap="round" stroke-linejoin="round"/>
</g>
<rect x="28" y="-6.10352e-05" width="47.9999" height="47.9999" rx="24" fill="#CB9655"/>
<path d="M54.382 15.5H49.618C49.2393 15.5 48.893 15.714 48.7236 16.0528L46.2236 21.0528C45.8912 21.7177 46.3747 22.5 47.118 22.5H56.882C57.6253 22.5 58.1088 21.7177 57.7764 21.0528L55.2764 16.0528C55.107 15.714 54.7607 15.5 54.382 15.5Z" fill="white"/>
<path d="M47.382 25H42.618C42.2393 25 41.893 25.214 41.7236 25.5528L39.2236 30.5528C38.8912 31.2177 39.3747 32 40.118 32H49.882C50.6253 32 51.1088 31.2177 50.7764 30.5528L48.2764 25.5528C48.107 25.214 47.7607 25 47.382 25Z" fill="white"/>
<path d="M61.382 25H56.618C56.2393 25 55.893 25.214 55.7236 25.5528L53.2236 30.5528C52.8912 31.2177 53.3747 32 54.118 32H63.882C64.6253 32 65.1088 31.2177 64.7764 30.5528L62.2764 25.5528C62.107 25.214 61.7607 25 61.382 25Z" fill="white"/>
</svg>
