<svg width="104" height="49" viewBox="0 0 104 49" fill="none" xmlns="http://www.w3.org/2000/svg">
<circle cx="54.0002" cy="25" r="24" fill="white"/>
<g opacity="0.64">
<rect x="60.0002" y="2" width="43.9999" height="43.9999" rx="22" fill="#617DEA"/>
<rect x="60.0002" y="2" width="43.9999" height="43.9999" rx="22" fill="#49C1B5"/>
<path d="M84.0501 20.9449V18.4735H89.7016V14.7079H74.3123V18.4735H79.9645V20.9429C75.3709 21.1539 71.917 22.0636 71.917 23.1535C71.917 24.2433 75.3726 25.1531 79.9645 25.3654V33.2817H84.0514V25.3647C88.6367 25.1531 92.0837 24.244 92.0837 23.1551C92.0837 22.0663 88.6367 21.1572 84.0514 20.9455L84.0501 20.9449ZM84.0514 24.6942V24.6922C83.9361 24.6995 83.3437 24.7351 82.0246 24.7351C80.97 24.7351 80.228 24.7052 79.9665 24.6915V24.6949C75.9082 24.5151 72.8789 23.8084 72.8789 22.9627C72.8789 22.1171 75.9085 21.4114 79.9665 21.2313V23.9908C80.2323 24.0091 80.9926 24.0539 82.0419 24.0539C83.3021 24.0539 83.9358 24.0014 84.0521 23.9908V21.2313C88.1024 21.4117 91.1247 22.1191 91.1247 22.9618C91.1247 23.8044 88.1011 24.5121 84.0521 24.6925" fill="white"/>
</g>
<g opacity="0.63">
<rect x="0.000244141" y="2" width="44.0001" height="44.0001" rx="22" fill="#617DEA"/>
<path d="M21.7102 11.1667V20.3167L29.4434 23.7727L21.7102 11.1667Z" fill="white" fill-opacity="0.602"/>
<path d="M21.7127 11.1667L13.9795 23.7727L21.7127 20.3167V11.1667Z" fill="white"/>
<path d="M21.7102 29.6993V35.9165L29.4479 25.2101L21.7102 29.6993Z" fill="white" fill-opacity="0.602"/>
<path d="M21.7127 35.9165V29.6993L13.9795 25.2101L21.7127 35.9165Z" fill="white"/>
<path d="M21.7102 28.2611L29.4434 23.7718L21.7102 20.3158V28.2611Z" fill="white" fill-opacity="0.2"/>
<path d="M13.9795 23.7718L21.7127 28.2611V20.3158L13.9795 23.7718Z" fill="white" fill-opacity="0.602"/>
</g>
<rect x="28" width="47.9999" height="47.9999" rx="24" fill="#FA8A34"/>
<path d="M60.2069 21.8444C60.5502 19.5327 58.8029 18.29 56.4136 17.461L57.1887 14.3296L55.2963 13.8545L54.5418 16.9035C54.0443 16.7786 53.5334 16.6608 53.0257 16.5441L53.7856 13.475L51.8944 13L51.1188 16.1304C50.707 16.0359 50.3028 15.9425 49.9104 15.8443L49.9126 15.8345L47.3029 15.1781L46.7995 17.214C46.7995 17.214 48.2035 17.5381 48.1739 17.5582C48.9403 17.7509 49.0788 18.2618 49.0556 18.6668L48.1728 22.2342C48.2256 22.2478 48.294 22.2673 48.3695 22.2977C48.3064 22.282 48.2391 22.2646 48.1695 22.2478L46.9321 27.2452C46.8383 27.4797 46.6006 27.8315 46.0649 27.698C46.0837 27.7257 44.6894 27.3521 44.6894 27.3521L43.75 29.5341L46.2125 30.1524C46.6707 30.2681 47.1196 30.3891 47.5616 30.5031L46.7785 33.6704L48.6686 34.1455L49.4442 31.0118C49.9605 31.153 50.4618 31.2833 50.9522 31.406L50.1794 34.525L52.0717 35L52.8548 31.8387C56.0816 32.4538 58.508 32.2057 59.5294 29.2659C60.3524 26.8988 59.4884 25.5334 57.7907 24.6431C59.0271 24.3559 59.9584 23.5366 60.2069 21.8444ZM55.8833 27.9515C55.2985 30.3186 51.3419 29.0389 50.0592 28.7181L51.0983 24.522C52.381 24.8445 56.4945 25.4829 55.8833 27.9515ZM56.4686 21.8102C55.935 23.9634 52.6419 22.8694 51.5737 22.6012L52.5158 18.7955C53.584 19.0637 57.0243 19.5642 56.4686 21.8102Z" fill="white"/>
</svg>
