<svg width="104" height="48" viewBox="0 0 104 48" fill="none" xmlns="http://www.w3.org/2000/svg">
<g opacity="0.64">
<rect x="60.0002" y="1.99994" width="43.9999" height="43.9999" rx="22" fill="#565ED1"/>
<path d="M71.917 22.9176L80.942 15.3251C81.2805 15.0403 81.7742 15.0384 82.1149 15.3205L91.2887 22.9176" stroke="white" stroke-width="1.375" stroke-linecap="round"/>
<path d="M89.6109 21.5444V31.154C89.6109 31.6595 89.2011 32.0692 88.6957 32.0692H86.3115" stroke="white" stroke-width="1.375" stroke-linecap="round"/>
<path d="M82.5034 31.1545V26.9626C82.5034 26.7169 82.4046 26.4816 82.2294 26.3095L79.4097 23.5413C79.0537 23.1918 78.4834 23.1918 78.1274 23.5413L75.3077 26.3095C75.1324 26.4816 75.0337 26.7169 75.0337 26.9626V31.1545C75.0337 31.66 75.4434 32.0697 75.9489 32.0697H81.5882C82.0936 32.0697 82.5034 31.66 82.5034 31.1545Z" fill="white" stroke="white" stroke-width="1.375"/>
<path d="M73.2913 27.4932L78.2874 22.901C78.6485 22.5691 79.2072 22.5809 79.554 22.9278L84.1182 27.4932" stroke="white" stroke-width="1.375" stroke-linecap="round"/>
</g>
<g opacity="0.64">
<rect x="0.000244141" y="2" width="43.9999" height="43.9999" rx="22" fill="#77CDD9"/>
<path d="M11.917 17.9972C11.917 17.6306 12.2142 17.3334 12.5808 17.3334H15.8217V21.5504C15.8217 21.917 15.5245 22.2142 15.1579 22.2142H12.5808C12.2142 22.2142 11.917 21.917 11.917 21.5504V17.9972Z" fill="white" stroke="white" stroke-width="1.375"/>
<path d="M30.0936 19.5843L27.68 17.4953C27.5594 17.3908 27.4051 17.3334 27.2456 17.3334H15.8218V20.75H29.6592C30.2739 20.75 30.5584 19.9865 30.0936 19.5843Z" stroke="white" stroke-width="1.375"/>
<path opacity="0.8" d="M22.5376 33.1668V21.2186" stroke="white" stroke-width="1.375" stroke-linecap="round"/>
<path opacity="0.8" d="M18.5549 33.1668V21.2186" stroke="white" stroke-width="1.375" stroke-linecap="round"/>
<rect opacity="0.8" x="24.5291" y="27.8564" width="5.31034" height="5.31034" rx="0.916667" fill="white"/>
<path d="M26.8523 30.5115H27.5161" stroke="#77CDD9" stroke-width="0.916667" stroke-linecap="round" stroke-linejoin="round"/>
<rect x="25.1931" y="23.678" width="3.90466" height="1.95233" rx="0.976166" fill="white" stroke="white" stroke-width="1.375"/>
<path d="M27.1455 23.19V20.9937" stroke="white" stroke-width="1.375"/>
<path opacity="0.8" d="M15.8218 17.3334L18.7513 14.4039C19.0173 14.1378 19.4511 14.1459 19.7071 14.4216L22.4109 17.3334" stroke="white" stroke-width="1.375"/>
</g>
<rect x="28" y="-6.10352e-05" width="47.9999" height="47.9999" rx="24" fill="#F7D16D"/>
<rect x="28" width="47.9999" height="47.9999" rx="24" fill="#F7D16D"/>
<rect x="28" width="47.9999" height="47.9999" rx="24" fill="#5AA5FA"/>
<path d="M43.5 22.2047V33C43.5 33.2761 43.7239 33.5 44 33.5H49.5C50.0523 33.5 50.5 33.0523 50.5 32.5V20.419C50.5 19.7275 49.8149 19.2447 49.1637 19.4773L44.1637 21.263C43.7657 21.4051 43.5 21.7821 43.5 22.2047Z" fill="#C2DEFF"/>
<path d="M61.5 22.2047V33C61.5 33.2761 61.2761 33.5 61 33.5H55.5C54.9477 33.5 54.5 33.0523 54.5 32.5V20.419C54.5 19.7275 55.1851 19.2447 55.8363 19.4773L60.8363 21.263C61.2343 21.4051 61.5 21.7821 61.5 22.2047Z" fill="#C2DEFF"/>
<path d="M57.5364 29.7841H58.2864" stroke="white" stroke-width="1.5" stroke-linecap="round" stroke-linejoin="round"/>
<path d="M57.5364 25.1163H58.2864" stroke="white" stroke-width="1.5" stroke-linecap="round" stroke-linejoin="round"/>
<path d="M46.7478 30.0835H45.9978" stroke="white" stroke-width="1.5" stroke-linecap="round" stroke-linejoin="round"/>
<path d="M55.6014 32.6844V14.8164C55.6014 14.6882 55.5505 14.5652 55.4599 14.4746C55.3692 14.3839 55.2463 14.333 55.1181 14.333H49.3174C49.1892 14.333 49.0662 14.3839 48.9756 14.4746C48.8849 14.5652 48.834 14.6882 48.834 14.8164V32.6844" fill="white"/>
<path d="M52.0012 18.25H52.7512" stroke="#5AA5FA" stroke-width="1.5" stroke-linecap="round" stroke-linejoin="round"/>
<path d="M52.0012 25.334H52.7512" stroke="#C2DEFF" stroke-width="1.5" stroke-linecap="round" stroke-linejoin="round"/>
<path d="M52.0012 30.0835H52.7512" stroke="#C2DEFF" stroke-width="1.5" stroke-linecap="round" stroke-linejoin="round"/>
<path d="M62 33.3335L42 33.3335" stroke="white" stroke-width="1.5" stroke-linecap="round" stroke-linejoin="round"/>
</svg>
