<svg width="104" height="48" viewBox="0 0 104 48" fill="none" xmlns="http://www.w3.org/2000/svg">
<rect x="60" y="2" width="44" height="44" rx="22" fill="#06070A"/>
<path d="M79.2502 16.801V12.5891H84.4827V16.801H79.2502ZM79.2502 35.9167V18.6543H84.4827V35.9102L79.2502 35.9167Z" fill="white"/>
<g opacity="0.72">
<rect x="-0.000244141" y="2" width="44.0001" height="44.0001" rx="22" fill="#193989"/>
<g clip-path="url(#clip0_2_1032)">
<path d="M25.5842 26.8485L24.7894 27.6488L24.0167 26.854L23.6001 25.6174L22.4162 25.209L22.4139 24.439L21.6439 24.4413L21.2378 26.3952L21.6544 27.6593L19.8422 28.4623L19.2894 27.6671L19.6717 26.8678L19.6689 26.0153L18.4864 26.0194L16.9244 27.6744L15.741 27.2936L15.735 25.6435L13.6716 25.32L12.1894 26.1225L11.308 25.7403L11.3025 24.0632L12.0986 23.675L15.2561 22.0974L15.7245 22.481L16.9038 21.2949L16.901 20.5244L18.4631 18.9519L19.2555 17.2716L20.4311 15.3154L22.3827 14.924L23.1802 14.9213L23.1825 15.6913L24.7555 17.2537L24.7606 18.9312L27.2163 21.261L29.5864 22.8477L30.7698 23.229L31.1864 24.4102L32.7567 25.1756L31.9615 25.9749L31.1919 25.9777L31.1892 25.1806L30.0053 24.7988L28.0189 22.8532L26.4486 22.0607L24.7633 19.7017L23.991 18.9335L24.3719 17.6676L23.1853 16.4888L22.3901 17.2611L22.3956 18.939L21.6283 19.7118L23.2009 21.2738L22.4061 22.0736L24.0062 23.636L24.0089 24.4335L24.7839 25.9983L25.5814 25.996L26.4587 25.1958L26.0453 24.8121L25.5737 23.631L26.4537 23.6282L27.2287 25.1935L28.029 25.9882L25.5842 26.8485Z" fill="white"/>
<path d="M11.3319 33.0554L11.3181 28.8754L12.1967 28.4877L12.2119 33.0531L11.3319 33.0554Z" fill="white"/>
<path d="M15.842 33.0407C14.962 33.0435 14.962 33.0435 14.962 33.0435C14.9556 31.228 14.9556 31.228 14.9556 31.228C14.9538 30.6785 14.7338 30.5139 14.4038 30.5148C14.0188 30.5162 13.8542 30.6821 13.8561 31.2317C13.862 33.0467 13.862 33.0467 13.862 33.0467C13.01 33.0494 13.01 33.0494 13.01 33.0494C12.9985 29.7224 12.9985 29.7224 12.9985 29.7224C13.851 29.7196 13.851 29.7196 13.851 29.7196C13.852 29.9671 13.852 29.9671 13.852 29.9671C14.016 29.8017 14.2356 29.6633 14.6481 29.6619C15.4181 29.6591 15.8324 30.2078 15.8356 31.1428" fill="white"/>
<path d="M19.3783 29.7013C18.2068 33.0334 18.2068 33.0334 18.2068 33.0334C17.3268 33.0361 17.3268 33.0361 17.3268 33.0361C16.1333 29.7123 16.1333 29.7123 16.1333 29.7123C17.0963 29.7091 17.0963 29.7091 17.0963 29.7091C17.5683 31.2198 17.5683 31.2198 17.5683 31.2198C17.6522 31.5223 17.7081 31.8523 17.7906 31.9893C17.7902 31.8518 17.8722 31.5213 17.9529 31.2184C18.4158 29.7045 18.4158 29.7045 18.4158 29.7045" fill="white"/>
<path d="M21.7476 30.9589C21.6642 30.6564 21.4983 30.4098 21.1133 30.4107C20.7008 30.4121 20.4817 30.6601 20.4001 30.9635M21.2045 33.0778C20.2415 33.081 19.5247 32.3958 19.5215 31.3508C19.5178 30.3328 20.2305 29.643 21.1105 29.6403C22.0455 29.6375 22.5983 30.4057 22.6015 31.3407C22.602 31.5052 22.602 31.5052 22.6024 31.6707C20.4024 31.678 20.4024 31.678 20.4024 31.678C20.4863 32.0626 20.8718 32.2267 21.2018 32.2253C21.3393 32.2248 21.6693 32.1409 21.8333 31.9759C22.4402 32.4691 22.4402 32.4691 22.4402 32.4691C22.1395 32.9375 21.5075 33.0769 21.2045 33.0778Z" fill="white"/>
<path d="M24.5021 32.2973C24.8046 32.2964 24.9696 32.2134 24.9692 32.0484C24.9683 31.8289 24.6658 31.7468 24.5008 31.7473C23.8678 31.5846 23.0698 31.5044 23.0671 30.6523C23.0652 30.0198 23.6964 29.6321 24.4114 29.6303C24.8793 29.6289 25.3468 29.765 25.6782 30.0116C25.2125 30.6455 25.2125 30.6455 25.2125 30.6455C24.9646 30.4814 24.6616 30.3998 24.4141 30.4007C24.0291 30.4016 23.9466 30.4846 23.9471 30.6496C23.9475 30.7871 24.415 30.8678 24.6635 30.9498C25.2964 31.1125 25.8469 31.2757 25.8492 31.9632C25.8519 32.6782 25.1378 33.065 24.4228 33.0678C23.8728 33.0696 23.4049 32.8514 22.9915 32.6053C23.4846 32.0535 23.4846 32.0535 23.4846 32.0535C23.7867 32.2171 24.1171 32.2987 24.5021 32.2973Z" fill="white"/>
<path d="M27.9612 30.4709C27.4937 30.4723 27.1101 30.8586 27.1115 31.3261C27.1128 31.8211 27.4997 32.2048 27.9667 32.2034C28.2967 32.2025 28.5158 32.0366 28.6803 31.8161C29.3972 32.3634 29.3972 32.3634 29.3972 32.3634C29.0685 32.7497 28.5195 33.0536 27.9695 33.0554C27.0345 33.0582 26.2347 32.2914 26.2315 31.3289C26.2282 30.3939 27.0235 29.6211 27.9585 29.6179C28.5085 29.6161 29.0594 29.9168 29.3908 30.3008C28.6771 30.8531 28.6771 30.8531 28.6771 30.8531C28.5117 30.6345 28.2908 30.47 27.9612 30.4709Z" fill="white"/>
<path d="M32.144 31.31C32.1427 30.842 31.8113 30.4584 31.3438 30.4598C30.7938 30.4616 30.4931 30.8475 30.494 31.3155C30.4959 31.8105 30.7993 32.1941 31.3493 32.1927C31.8172 32.1909 32.1459 31.805 32.144 31.31ZM32.9965 31.3068C32.9997 32.2693 32.315 33.0411 31.352 33.0443C30.417 33.0475 29.6172 32.2803 29.614 31.3178C29.6108 30.3828 30.406 29.6096 31.341 29.6068C32.3035 29.6041 32.9933 30.3718 32.9965 31.3068Z" fill="white"/>
</g>
</g>
<rect x="28" width="47.9999" height="47.9999" rx="24" fill="#96151D"/>
<path d="M40.5 12.0385V12.2828C41.8634 12.6174 42.5284 14.9967 42.5284 14.9967L47.8103 29.7238C49.2667 33.8686 52.003 34.6846 52.003 34.6846L55.3817 36L63.5 12H57.0752V12.195C59.4039 13.1024 58.5339 15.3938 58.5339 15.3938L54.2769 29.0113L48.5206 12.0385H40.5Z" fill="white"/>
<defs>
<clipPath id="clip0_2_1032">
<rect width="22.0001" height="18.3334" fill="white" transform="translate(11 14.8334)"/>
</clipPath>
</defs>
</svg>
