<svg width="50" height="54" viewBox="0 0 50 54" fill="none" xmlns="http://www.w3.org/2000/svg">
<ellipse cx="25" cy="26.8278" rx="24" ry="25.8278" fill="#F2FAF7" stroke="#E9F7F2"/>
<path d="M16 35.4371L16.1354 34.5003C16.3096 33.2954 17.0074 32.2197 18.1289 31.7463C19.434 31.1953 21.3468 30.5806 23.3846 30.5806C25.4224 30.5806 27.3352 31.1953 28.6403 31.7463C29.7618 32.2197 30.4597 33.2954 30.6338 34.5003L30.7692 35.4371" stroke="#00A385" stroke-width="1.6" stroke-linecap="round" stroke-linejoin="round"/>
<path d="M32.2036 24.3195V28.6349" stroke="#00A385" stroke-width="1.5" stroke-linecap="round" stroke-linejoin="round"/>
<path d="M34.2497 26.477H30.1597" stroke="#00A385" stroke-width="1.5" stroke-linecap="round" stroke-linejoin="round"/>
<path d="M23.3848 27.0485C25.6506 27.0485 27.4874 25.0719 27.4874 22.6335C27.4874 20.1952 25.6506 18.2185 23.3848 18.2185C21.119 18.2185 19.2822 20.1952 19.2822 22.6335C19.2822 25.0719 21.119 27.0485 23.3848 27.0485Z" stroke="#00A385" stroke-width="1.6" stroke-linecap="round" stroke-linejoin="round"/>
</svg>
